<svg width="50" height="50" viewBox="0 0 50 50" fill="none" xmlns="http://www.w3.org/2000/svg">
<path d="M25.5 4.5C37.7124 4.5 47.5 13.9628 47.5 25.5C47.5 31.3842 45.6077 36.0984 42.3145 39.3408C39.0194 42.5851 34.1751 44.5 28 44.5C21.8006 44.5 15.6178 42.5664 11.0195 39.1992C6.43774 35.8442 3.5 31.1335 3.5 25.5C3.5 13.9628 13.2876 4.5 25.5 4.5Z" fill="#52995E" stroke="#BBE0C0" stroke-width="3"/>
<path d="M35.5 13C30 26.5 18.5 8.48556 19.5 22.4855M9.00004 21.9856C10 35.4856 31.5471 24.5152 22.5 37.0001M32 37C31.9751 26.9379 34.7419 25.7868 42.4741 20.9855" stroke="#BBE0C0" stroke-width="4" stroke-linecap="round"/>
</svg>
